<?xml version="1.0" standalone="no"?>
<!DOCTYPE svg PUBLIC "-//W3C//DTD SVG 20010904//EN"
 "http://www.w3.org/TR/2001/REC-SVG-20010904/DTD/svg10.dtd">
<svg version="1.0" xmlns="http://www.w3.org/2000/svg"
 width="512.000000pt" height="512.000000pt" viewBox="0 0 512.000000 512.000000"
 preserveAspectRatio="xMidYMid meet">

<g transform="translate(0.000000,512.000000) scale(0.100000,-0.100000)"
fill="#000000" stroke="none">
<path d="M1160 5109 c-400 -51 -739 -268 -962 -615 -72 -112 -135 -270 -170
-422 -20 -92 -22 -125 -25 -666 -4 -513 -3 -574 12 -613 24 -62 61 -102 120
-129 121 -57 251 -8 309 116 20 44 21 63 27 615 5 504 8 577 23 630 92 309
343 546 648 609 96 20 261 20 352 1 311 -66 552 -292 648 -607 21 -70 22 -93
26 -500 l3 -428 -219 0 -218 0 -55 -27 c-60 -31 -105 -86 -119 -149 -6 -22
-10 -608 -10 -1375 0 -1154 2 -1342 15 -1386 16 -53 64 -111 118 -140 30 -17
127 -18 1653 -18 l1621 0 49 30 c30 19 60 49 79 79 l30 49 3 1374 2 1374 -21
49 c-23 54 -73 104 -125 126 -28 12 -230 14 -1183 14 l-1149 0 -5 428 c-5 465
-10 515 -67 683 -124 372 -402 669 -760 812 -206 82 -439 113 -650 86z"/>
</g>
</svg>
